<svg xmlns="http://www.w3.org/2000/svg" viewBox="0 0 100 100">
  <g>
    <rect rx="3" height="57" width="57" y="35.5" x="8.5" stroke-width="3" stroke="#000000" fill="none"/>
    <g transform="rotate(90 56,45)">
      <path fill="#000000" d="m94.003744,72.797945c2.446211,-5.396205 2.963845,-10.346622 1.516547,-14.759496c-2.446211,-7.45722 -9.588349,-10.67815 -10.48512,-11.056421c-3.634691,-2.335413 -15.267608,-5.728599 -15.762736,-5.87229c-16.266521,-4.751327 -21.554525,-8.525381 -22.987108,-9.800423c0.003462,-0.07098 0.004328,-0.123782 0.004328,-0.137632l-0.000866,-0.367884l-25.950952,-24.770262l-0.421551,0.064921c-3.733371,0.576495 -4.451826,4.214649 -4.480391,4.368728l-0.085695,0.459638l26.681526,25.613365l0.180912,-0.071846c1.693996,1.812585 5.66541,7.184553 11.216559,21.705141c0.183509,0.483875 4.506359,11.805173 7.128289,15.239043c0.450117,0.863012 4.23629,7.722096 11.867497,9.557187c1.232627,0.296904 2.492953,0.444923 3.779248,0.444923c3.563711,0 7.330841,-1.140872 11.261571,-3.400977c0.147153,0.103873 0.357496,0.198224 0.64661,0.198224c1.176362,0 3.058196,-1.879237 3.812141,-2.68685c2.208168,-2.361381 2.909311,-3.949773 2.082655,-4.724493c0,-0.000866 -0.001731,-0.001731 -0.003462,-0.002597zm-21.157211,8.493354c-7.186284,-1.719099 -10.745668,-8.662147 -10.780292,-8.731396l-0.091755,-0.145422c-2.456598,-3.147354 -6.88159,-14.739587 -6.926602,-14.858175c-3.180247,-8.319366 -5.875753,-13.729421 -7.968795,-17.229943c2.62366,3.485807 6.264411,8.854313 10.703253,16.737412c0.279592,0.556586 6.916214,13.666232 13.185819,18.266943c0.127244,0.096083 3.172456,2.378693 7.162913,3.765398c1.872312,0.649207 3.63296,0.979869 5.273289,1.013628c-3.745489,1.565021 -7.278039,1.964932 -10.557831,1.181556zm14.7292,-3.736833c-6.563912,3.072046 -15.463236,-3.529087 -15.573168,-3.613051c-5.944136,-4.360937 -12.606727,-17.522519 -12.693288,-17.691313c-3.78877,-6.730109 -6.988926,-11.641573 -9.494863,-15.140364c4.185219,4.439708 9.532084,10.626214 13.790014,17.266299c0.24843,0.401642 6.171791,9.886118 13.724228,13.785686c0.288248,0.167928 6.030697,3.492732 10.732684,4.666497c-0.187837,0.255355 -0.347109,0.496859 -0.485607,0.726246zm-9.413496,-6.90929c-7.161182,-3.698746 -13.027413,-13.085408 -13.093199,-13.191878c-3.807813,-5.937211 -8.461326,-11.506538 -12.417158,-15.827657c4.637066,3.604395 10.593321,7.818179 16.854269,11.151638c0.098679,0.050205 9.928533,5.137388 14.217625,12.012919c0.047608,0.067517 4.23629,6.112929 5.50181,10.525803c-4.504628,-0.875131 -10.956011,-4.609367 -11.063346,-4.670825zm13.266321,2.726668c-0.273532,0.206015 -0.544468,0.426745 -0.798091,0.6544c-1.567618,-4.570415 -5.292332,-9.948442 -5.461992,-10.189081c-4.52194,-7.249474 -14.452205,-12.385996 -14.860772,-12.594608c-6.975941,-3.714327 -13.582268,-8.549618 -18.34831,-12.365222c3.697015,2.218555 8.8647,5.0188 15.905562,8.263102c0.137632,0.055399 13.792611,5.62992 18.630498,11.216559c0.083964,0.093486 7.254667,8.258774 4.933105,15.01485zm0.690756,-9.332994c-1.703518,-3.865809 -4.225037,-6.715393 -4.32285,-6.825325c-5.100167,-5.888737 -18.70321,-11.44508 -19.242484,-11.662348c-8.228477,-3.792232 -13.880037,-6.988926 -17.571859,-9.323473c3.658928,1.802198 9.267208,4.049318 17.806439,6.544003c0.12032,0.034624 12.031097,3.508313 15.366288,5.701765l0.153213,0.080502c0.072711,0.029431 7.260727,2.988082 9.56844,10.024616c1.051715,3.205349 0.941782,6.762136 -0.317678,10.627079c-0.168794,-1.629941 -0.642282,-3.356831 -1.439507,-5.166819z"/>
    </g>
  </g>
</svg>
